#!OML:ASF F:\VICON\USERDATA\INSTALL\rory3\rory3.ASF
:FULLY-SPECIFIED
:DEGREES
1154
root 8.5402 16.8348 28.043 -326.702 26.8771 364.255
lowerback -20.4277 -5.59572 1.16733
upperback -16.3014 -7.16345 1.82054
thorax -6.44921 -3.53314 0.283348
lowerneck -12.7529 0.29439 -1.849
upperneck 39.3641 0.0715553 2.86113
head 16.1841 0.233449 1.62359
rclavicle -8.80616e-014 -6.16232e-014
rhumerus -31.2758 -73.4947 27.7263
rradius 15.6376
rwrist 39.1007
rhand 2.72996 1.55973
rfingers 7.12502
rthumb 28.2025 -26.3384
lclavicle -8.80616e-014 -6.16232e-014
lhumerus 63.5833 3.56304 17.6218
lradius 29.8746
lwrist -11.3703
lhand 8.6899 25.3109
lfingers 7.12502
lthumb 33.8827 52.1206
rfemur -57.6687 4.22441 24.2908
rtibia 38.0451
rfoot -46.9728 -39.1277
rtoes 44.9597
lfemur -11.4856 -2.92742 -23.1698
ltibia 28.2367
lfoot 37.3194 24.371
ltoes -38.8606
1155
root 8.54125 16.8363 28.0425 -326.781 26.9857 364.108
lowerback -20.6604 -5.55539 1.29492
upperback -16.1151 -7.13315 1.84203
thorax -6.12789 -3.52798 0.204244
lowerneck -12.7773 0.256844 -1.85799
upperneck 39.2199 0.0141029 2.86967
head 16.1166 0.209613 1.61543
rclavicle -2.60408e-014 -6.91771e-014
rhumerus -31.7862 -73.6983 28.2294
rradius 15.5908
rwrist 38.8287
rhand 2.46249 1.32422
rfingers 7.12502
rthumb 27.9468 -26.6158
lclavicle -2.60408e-014 -6.91771e-014
lhumerus 63.7775 3.82098 17.8062
lradius 29.825
lwrist -11.5552
lhand 8.77924 25.2219
lfingers 7.12502
lthumb 33.9676 52.0128
rfemur -57.6092 4.1395 24.5229
rtibia 38.0057
rfoot -46.9082 -39.0624
rtoes 44.7602
lfemur -11.489 -3.00941 -22.9946
ltibia 28.2711
lfoot 18.5735 41.4956
ltoes 6.03949
1156
root 8.54278 16.8368 28.0435 -326.952 27.0992 363.914
lowerback -20.3587 -5.50937 1.53222
upperback -16.3493 -7.09616 1.88383
thorax -6.57828 -3.52675 0.173845
lowerneck -12.3044 0.23015 -1.93203
upperneck 39.3143 -0.0217942 2.90055
head 16.0504 0.187787 1.63446
rclavicle 6.76862e-014 -2.06736e-014
rhumerus -29.9725 -72.3751 26.4374
rradius 15.6321
rwrist 37.8208
rhand 2.54713 1.35867
rfingers 7.12502
rthumb 28.0277 -26.5681
lclavicle 6.76862e-014 -2.06736e-014
lhumerus 63.6272 3.44929 17.9307
lradius 29.8584
lwrist -11.563
lhand 8.85723 25.1905
lfingers 7.12502
lthumb 34.0417 51.965
rfemur -57.4685 4.07429 24.8078
rtibia 38.004
rfoot -47.2209 -38.6691
rtoes 45.0442
lfemur -11.3847 -2.94866 -22.7768
ltibia 28.2618
lfoot 13.8895 43.2299
ltoes 14.1674
1157
root 8.54178 16.8354 28.0431 -326.943 27.008 364.025
lowerback -20.3159 -5.52735 1.3841
upperback -16.333 -7.10018 1.87862
thorax -6.56156 -3.51593 0.250249
lowerneck -12.2986 0.21711 -2.05197
upperneck 39.2896 -0.0430544 2.99361
head 16.0366 0.173695 1.69245
rclavicle 1.01977e-013 6.91771e-014
rhumerus -31.1033 -73.1729 27.6654
rradius 15.5972
rwrist 38.7689
rhand 2.8162 1.68061
rfingers 7.12502
rthumb 28.2849 -26.2039
lclavicle 1.01977e-013 6.91771e-014
lhumerus 63.6306 3.43712 18.0032
lradius 29.8443
lwrist -11.5174
lhand 8.87861 25.1446
lfingers 7.12502
lthumb 34.062 51.9145
rfemur -57.4515 4.01304 24.7295
rtibia 38.012
rfoot -47.1351 -38.6227
rtoes 45.2387
lfemur -11.3345 -2.94913 -22.9171
ltibia 28.2675
lfoot 19.2578 40.9945
ltoes 4.46608
1158
root 8.5411 16.8359 28.0406 -326.67 26.8421 364.396
lowerback -20.7281 -5.57905 0.964181
upperback -15.9329 -7.1226 1.82653
thorax -5.84 -3.49572 0.346599
lowerneck -13.2688 0.206937 -2.14291
upperneck 39.2664 -0.0541819 3.08705
head 16.265 0.169108 1.75713
rclavicle 1.00386e-014 3.57812e-014
rhumerus -34.2655 -74.8896 30.8602
rradius 15.5621
rwrist 39.9478
rhand 2.93778 1.77475
rfingers 7.12502
rthumb 28.4011 -26.0904
lclavicle 1.00386e-014 3.57812e-014
lhumerus 64.0142 4.09535 18.25
lradius 29.7201
lwrist -11.6116
lhand 8.83977 25.1572
lfingers 7.12502
lthumb 34.0251 51.9354
rfemur -57.6678 4.24619 24.078
rtibia 38.0225
rfoot -47.0828 -39.2072
rtoes 45.0824
lfemur -11.4647 -3.06397 -23.3274
ltibia 28.2783
lfoot 30.2491 33.1484
ltoes -21.7709
1159
root 8.52681 16.8282 28.0512 -326.693 26.7049 364.171
lowerback -20.5172 -5.58705 0.927575
upperback -16.284 -7.11481 1.95327
thorax -6.33337 -3.47833 0.549765
lowerneck -12.7416 0.306243 -1.93083
upperneck 39.3732 0.100309 2.90102
head 16.1847 0.239508 1.66108
rclavicle 2.43511e-014 8.74653e-015
rhumerus -32.7188 -74.2914 29.3327
rradius 15.5674
rwrist 39.824
rhand 2.93075 1.87317
rfingers 7.12502
rthumb 28.3944 -25.9931
lclavicle 2.43511e-014 8.74653e-015
lhumerus 63.6587 3.5656 18.1968
lradius 29.763
lwrist -11.6914
lhand 8.63468 25.0595
lfingers 7.12502
lthumb 33.8303 51.8807
rfemur -57.8516 5.78408 23.3048
rtibia 38.0052
rfoot -48.4694 -40.3172
rtoes 44.8736
lfemur -11.5748 -2.9575 -23.1334
ltibia 28.2851
lfoot 18.2446 41.5374
ltoes 5.97033
1160
root 8.53567 16.8307 28.0458 -326.874 26.9476 363.937
lowerback -20.6487 -5.53632 1.32725
upperback -16.1627 -7.10835 1.96966
thorax -6.1751 -3.51016 0.330439
lowerneck -12.5417 0.336461 -1.69831
upperneck 39.1906 0.16271 2.67848
head 16.0384 0.269978 1.52504
rclavicle -5.45664e-014 -1.03368e-014
rhumerus -32.5149 -74.1608 29.0544
rradius 15.5603
rwrist 39.623
rhand 2.68055 1.71614
rfingers 7.12502
rthumb 28.1553 -26.1898
lclavicle -5.45664e-014 -1.03368e-014
lhumerus 63.7594 3.72456 18.6319
lradius 29.6946
lwrist -12.1763
lhand 8.62244 24.8716
lfingers 7.12502
lthumb 33.8186 51.6954
rfemur -57.6602 5.0225 24.1123
rtibia 38.0022
rfoot -48.0255 -39.4823
rtoes 45.0081
lfemur -11.4905 -2.96323 -22.8423
ltibia 28.2843
lfoot 14.077 43.1552
ltoes 13.5582
1161
root 8.54367 16.8328 28.0403 -326.923 27.0231 363.986
lowerback -20.5257 -5.52237 1.44169
upperback -16.2788 -7.10254 1.90783
thorax -6.39666 -3.52056 0.225354
lowerneck -12.1296 0.290219 -1.77283
upperneck 39.2527 0.0831262 2.74499
head 15.9719 0.234463 1.5519
rclavicle 4.7112e-014 4.6118e-014
rhumerus -32.6018 -74.0871 29.1667
rradius 15.5303
rwrist 39.9683
rhand 2.62519 1.90771
rfingers 7.12502
rthumb 28.1023 -26.0069
lclavicle 4.7112e-014 4.6118e-014
lhumerus 63.8137 3.58245 19.1757
lradius 29.5642
lwrist -12.7126
lhand 9.15254 24.4301
lfingers 7.12502
lthumb 34.3221 51.1418
rfemur -57.5234 4.63517 24.2922
rtibia 37.9649
rfoot -47.7747 -39.2022
rtoes 45.047
lfemur -11.4321 -3.02888 -22.8929
ltibia 28.3456
lfoot 12.5852 43.5362
ltoes 15.7746
1162
root 8.54615 16.8334 28.0386 -326.86 26.9377 364.187
lowerback -20.2999 -5.56817 1.30947
upperback -16.5316 -7.13611 1.86108
thorax -6.79746 -3.52758 0.284647
lowerneck -11.6309 0.258052 -1.84296
upperneck 39.4197 0.0518477 2.7338
head 15.9376 0.208405 1.55417
rclavicle -9.10434e-014 -5.56597e-014
rhumerus -32.8123 -74.3421 29.44
rradius 15.519
rwrist 40.6586
rhand 2.8779 2.29616
rfingers 7.12502
rthumb 28.3439 -25.5785
lclavicle -9.10434e-014 -5.56597e-014
lhumerus 63.5865 3.20154 19.2241
lradius 29.5675
lwrist -12.8576
lhand 9.48859 24.0609
lfingers 7.12502
lthumb 34.6411 50.7
rfemur -57.4618 4.31813 24.2683
rtibia 37.8841
rfoot -47.1363 -39.2749
rtoes 44.8319
lfemur -11.468 -3.0788 -23.1286
ltibia 28.4838
lfoot 14.1802 42.9486
ltoes 12.9104
1163
root 8.55168 16.838 28.0349 -327.039 27.155 363.922
lowerback -20.145 -5.53475 1.70527
upperback -16.5853 -7.14308 1.92566
thorax -6.98254 -3.56389 0.159147
lowerneck -11.5892 0.248248 -1.76628
upperneck 39.5659 0.0835752 2.55674
head 16.0033 0.208404 1.47169
rclavicle -5.02925e-014 -3.89618e-014
rhumerus -33.2213 -74.7172 29.8673
rradius 15.5403
rwrist 41.1181
rhand 2.91524 2.33917
rfingers 7.12502
rthumb 28.3796 -25.5296
lclavicle -5.02925e-014 -3.89618e-014
lhumerus 63.4913 3.08417 19.2157
lradius 29.5601
lwrist -12.8724
lhand 9.16319 23.9696
lfingers 7.12502
lthumb 34.3322 50.679
rfemur -57.3271 4.11015 24.6972
rtibia 37.8306
rfoot -46.8816 -39.2812
rtoes 45.0061
lfemur -11.4398 -3.13505 -22.8147
ltibia 28.5526
lfoot 25.6492 37.1408
ltoes -10.1539
1164
root 8.56392 16.8478 28.0241 -327.475 27.7871 363.16
lowerback -19.9765 -5.42408 2.79686
upperback -16.5247 -7.14267 2.06328
thorax -7.12658 -3.65786 -0.268383
lowerneck -11.7765 0.241949 -1.62485
upperneck 39.6827 0.0995372 2.39115
head 16.1112 0.213179 1.3809
rclavicle 9.61124e-014 5.40694e-014
rhumerus -35.8601 -76.0014 32.5893
rradius 15.4436
rwrist 42.5273
rhand 2.99509 2.62585
rfingers 7.12502
rthumb 28.4559 -25.2302
lclavicle 9.61124e-014 5.40694e-014
lhumerus 63.4904 3.12148 19.169
lradius 29.59
lwrist -12.7903
lhand 8.89236 23.9912
lfingers 7.12502
lthumb 34.075 50.7583
rfemur -57.0692 3.80353 25.733
rtibia 37.7516
rfoot -47.0855 -38.86
rtoes 45.2149
lfemur -11.4214 -3.16897 -21.8803
ltibia 28.6325
lfoot 37.1092 24.3104
ltoes -38.9004
